<svg xmlns="http://www.w3.org/2000/svg" viewBox="0 0 369.62 88.7"><defs><style>.cls-1{fill:none;stroke:#231f20;stroke-miterlimit:10;stroke-width:0.36px;}.cls-2{fill:#fff;}.cls-3{fill:#c92026;}.cls-4{fill:#231f20;}.cls-5{fill:#820b0b;}</style></defs><g id="Layer_3" data-name="Layer 3"><path class="cls-1" d="M345.45,40.92c-.62,3.07-4.8,6.73-12.23,4.52l-.67-.21c-.63-.76-.36-3.06,0-4.42a4.06,4.06,0,0,1,.27-.76,2.56,2.56,0,0,1,1.63-1.12c.95-.3,1-1.31,2.53-1.36,1.72-.06,1.3,1.55,3.28,1.09-2.54-1.69-.61-3.71-2-5.94a3,3,0,0,1-3.05-.9c-.17-.47-1.1-1.06-.45-2.34a2.53,2.53,0,0,1,1.41-2.41,4.6,4.6,0,0,1,2.83.18c1.75.53,1.88,2.2,2.43,3.44C345.17,35.07,345.77,40,345.45,40.92Z"/><path class="cls-1" d="M323.3,74.57a1.73,1.73,0,0,1-1.65-.17c-1.39-.84-.21-3.5-.33-4.17-.09-.49-3.9-6.64-4.85-9.27a2.34,2.34,0,0,1-.2-1,6.42,6.42,0,0,1,4.62-2,5,5,0,0,1,.77,1c1.77,2.83,2.37,8.74,2.74,11.4C324.57,71.52,324.84,74,323.3,74.57Z"/><path class="cls-1" d="M299.73,43c-.61.15-1.2.27-1.76.37-8.42,1.52-10.49-2-10.79-5.1-.22-1,.84-5.88,4.91-9.93.65-1.19.94-2.87,2.7-3.24,1.54-.31,3,.3,3.92,2.69.51,1.36-.46,1.86-.66,2.32a2.84,2.84,0,0,1-3.06.6c-1.61,2.11.08,4.34-2.56,5.8,1.89.2,2-1.56,3.45-1.59.91,0,1.58,1.31,2.31,1.58a2,2,0,0,1,1.31,1.14C299.88,38.74,300.59,43.17,299.73,43Z"/><path class="cls-2" d="M298.15,27.58a1.77,1.77,0,0,0-.49.26,2.2,2.2,0,0,0-.9,1,1.23,1.23,0,0,0,.1,1.06,1.59,1.59,0,0,0,2.46-.17c.45-.77-.16-2.38-1.17-2.14"/><path class="cls-1" d="M298.15,27.58a1.77,1.77,0,0,0-.49.26,2.2,2.2,0,0,0-.9,1,1.23,1.23,0,0,0,.1,1.06,1.59,1.59,0,0,0,2.46-.17C299.77,29,299.16,27.34,298.15,27.58Z"/><path class="cls-1" d="M311.52,60.43a10.19,10.19,0,0,1-.86.88,17.57,17.57,0,0,1-3.13,2.22,3.69,3.69,0,0,1,2.77,2.37,2.09,2.09,0,0,1,.18.88c0,.16,0,.31,0,.45a8.07,8.07,0,0,1-.2,1.12,4.48,4.48,0,0,1-1.46,2.45,1,1,0,0,1-1.33,0,3.34,3.34,0,0,1-.08-2.63l0-.11c-.47-1.11-3.49-1.62-4.07-2a2.17,2.17,0,0,1-.72-.84,2.83,2.83,0,0,1,0-2.38,39.37,39.37,0,0,1,4.13-4.77A7,7,0,0,1,308,56.93c1.48-.68,4.15-.52,4.53,1.37C312.74,59.3,312.19,59.67,311.52,60.43Z"/><path class="cls-3" d="M333,42.78c.86-6.48-2.78-12.31-8.13-13h-.05c-3-.4-6.07,1.83-8.2,4.24-1.42-2.88-3.79-5.82-6.82-6.22h-.05c-5.34-.7-10.37,4-11.23,10.46,0,.16,0,.32,0,.48-.4,2.19-1.07,11.77,14.08,22.49l.44.31.5-.19c17.41-6.41,19.25-15.83,19.44-18.05,0-.16.05-.32.07-.48"/><path class="cls-2" d="M337.7,28.13a1.65,1.65,0,0,1,.19.54,2.23,2.23,0,0,1,0,1.33,1.15,1.15,0,0,1-.79.68c-.89.2-1.9-1-1.7-1.85s1.73-1.58,2.31-.7"/><path class="cls-1" d="M337.7,28.13a1.65,1.65,0,0,1,.19.54,2.23,2.23,0,0,1,0,1.33,1.15,1.15,0,0,1-.79.68c-.89.2-1.9-1-1.7-1.85S337.12,27.25,337.7,28.13Z"/><path class="cls-4" d="M310.61,40.73a2.65,2.65,0,0,0-1-2.88c-1.19-.85-1.93.78-2.12,2.51-.1.91,0,2.61,1.27,2.81s1.64-1.42,1.81-2.44"/><path class="cls-4" d="M320.22,41.53a2.46,2.46,0,0,1,1.86-2.3c1.45-.37,1.64,1.37,1.27,3-.19.88-.85,2.39-2.15,2.14s-1.15-1.85-1-2.85"/><path class="cls-2" d="M321.81,40.76c.13.52.52.92.86.89s.51-.47.37-1-.52-.92-.86-.89-.51.48-.37,1"/><path class="cls-2" d="M308.83,39.61c.2.51.63.85.95.76s.41-.57.21-1.08-.64-.85-1-.76-.41.57-.2,1.08"/><path class="cls-5" d="M300.91,43a.08.08,0,0,1-.06,0,.09.09,0,0,1,0-.12l1.49-1.27a.08.08,0,0,1,.11,0,.07.07,0,0,1,0,.11L301,43a.06.06,0,0,1,0,0"/><path class="cls-5" d="M302,43.19s0,0-.06,0a.09.09,0,0,1,0-.12l1.49-1.27a.08.08,0,0,1,.11,0,.08.08,0,0,1,0,.12L302,43.16a.05.05,0,0,1-.05,0"/><path class="cls-5" d="M303.05,43.37a.07.07,0,0,1-.06,0,.08.08,0,0,1,0-.12L304.48,42a.09.09,0,0,1,.11.13l-1.49,1.27-.05,0"/><path class="cls-5" d="M325,45.94a.08.08,0,0,1-.06-.14l1.49-1.27a.08.08,0,0,1,.1.12l-1.48,1.27-.05,0"/><path class="cls-5" d="M326.08,46.12a.06.06,0,0,1-.06,0,.08.08,0,0,1,0-.11l1.49-1.27a.08.08,0,0,1,.1.12l-1.48,1.27-.05,0"/><path class="cls-5" d="M327.17,46.3a.08.08,0,0,1-.05-.14l1.48-1.27a.08.08,0,1,1,.1.12l-1.48,1.27s0,0-.05,0"/><path class="cls-4" d="M308.37,48.3a6.35,6.35,0,0,0,3.18,5.6c2.52,1.3,5.57.31,7.49-1.6a7.17,7.17,0,0,0,1.83-2.89,1.14,1.14,0,0,0-2.19-.61,2.31,2.31,0,0,1-.1.28c.11-.3,0,.05-.05.11s-.22.4-.35.59a5.8,5.8,0,0,1-1,1.16,4.78,4.78,0,0,1-3.22,1.27,3.05,3.05,0,0,1-2.48-1.37,5.3,5.3,0,0,1-.4-.7l-.1-.2c.05.1,0,.09,0,0s-.09-.27-.13-.4a5.47,5.47,0,0,1-.16-.7c0,.29,0-.1,0-.16V48.3c.06-1.47-2.22-1.47-2.28,0"/><path class="cls-4" d="M330.52,26.19a1.12,1.12,0,0,0-.1-1.24.75.75,0,0,0-1.09-.2c-.62.54-2.44,2.79-2.08,3.26s2.84-1,3.27-1.82"/><path class="cls-4" d="M325.09,22.9a.69.69,0,0,0-.28-.77.47.47,0,0,0-.71.17c-.3.51-1.05,2.42-.74,2.63s1.59-1.43,1.73-2"/><path class="cls-4" d="M318.39,19.32a1,1,0,0,1,1.2-.54,1,1,0,0,1,.79,1.14c-.14,1-1.16,4.27-1.8,4.11s-.66-3.81-.19-4.71"/><path class="cls-4" d="M306.57,22.43a1.16,1.16,0,0,1,.52-1.15c.13-.1.77-.41,1.09.15s1.37,3.38.87,3.72-2.33-1.85-2.48-2.72"/><path class="cls-4" d="M312.63,20.84a.73.73,0,0,1,.53-.64.46.46,0,0,1,.61.38c.11.57.17,2.62-.19,2.71s-1-1.83-.95-2.45"/><path class="cls-3" d="M25.4,54.43l10.32,0v.83a8.64,8.64,0,0,0,1.9,5.86,6.38,6.38,0,0,0,5.08,2.2,7.18,7.18,0,0,0,5.4-2,7.64,7.64,0,0,0,2-5.54q0-5.6-8-8l-1.63-.51q-6.75-2.12-10-6a14.67,14.67,0,0,1-3.25-9.78q0-8.13,4.5-13.06t12-4.92q7,0,11.19,4.39T59.53,30.1H49.29v-.47a6.11,6.11,0,0,0-1.67-4.49,5.81,5.81,0,0,0-4.36-1.71,5.69,5.69,0,0,0-4.39,1.75,6.77,6.77,0,0,0-1.6,4.76,7,7,0,0,0,.33,2.25A5.24,5.24,0,0,0,38.66,34q1.62,1.78,7,3.29c1.59.43,2.8.79,3.65,1.08q6,2,8.79,5.79a15.6,15.6,0,0,1,2.84,9.64q0,8.94-5,14.35T42.78,73.52a16.11,16.11,0,0,1-12.5-5.24Q25.53,63,25.4,54.43Z"/><path class="cls-3" d="M70.68,72.37V37.76H64v-9h6.67V14.58H80.84V28.71h6.71v9H80.84V72.37Z"/><path class="cls-3" d="M126,72.37V67a11.19,11.19,0,0,1-5.13,4.8,20.14,20.14,0,0,1-8.48,1.55,21.74,21.74,0,0,1-16.17-6.61,22.46,22.46,0,0,1-6.49-16.41,23.47,23.47,0,0,1,1.63-8.73A21.94,21.94,0,0,1,96,34.35a21,21,0,0,1,7.22-5.1,23.11,23.11,0,0,1,8.93-1.65,19.38,19.38,0,0,1,8.2,1.59,13.12,13.12,0,0,1,5.54,4.8V28.71h9.92V72.37ZM100.17,50.18a12.58,12.58,0,0,0,3.67,9.23,12.13,12.13,0,0,0,9,3.71,11.46,11.46,0,0,0,8.45-3.73,12.07,12.07,0,0,0,3.65-8.73,12.76,12.76,0,0,0-3.67-9.15,11.54,11.54,0,0,0-8.59-3.83,12.43,12.43,0,0,0-12.46,12.5Z"/><path class="cls-3" d="M154.74,28.71v5a14.35,14.35,0,0,1,5.1-4.4,14.62,14.62,0,0,1,6.57-1.43,20.13,20.13,0,0,1,9,1.86,17,17,0,0,1,6.45,5.84,18.3,18.3,0,0,1,5.8-5.8,13.66,13.66,0,0,1,7.1-1.9q8,0,12.3,5t4.29,14.45v25h-10V53q0-8.9-2-12.08t-6.8-3.2q-5,0-7.2,3.59t-2.17,12.33V72.37H173.15V53q0-8.85-2-12.06c-1.34-2.15-3.67-3.22-7-3.22s-5.82,1.2-7.3,3.59-2.22,6.51-2.22,12.33V72.37h-9.8V28.71Z"/><path class="cls-3" d="M220.26,72.37V14.58h9.92V72.37Z"/><path class="cls-3" d="M236.57,50.34a22.91,22.91,0,0,1,1.69-8.75,22.07,22.07,0,0,1,4.9-7.36,23.43,23.43,0,0,1,7.42-5.06,21.53,21.53,0,0,1,8.57-1.77A23.67,23.67,0,0,1,267.86,29a23,23,0,0,1,7.33,4.7,23.44,23.44,0,0,1,5.27,7.6,21.92,21.92,0,0,1,1.87,8.83,24.56,24.56,0,0,1-1.63,9.13,22.25,22.25,0,0,1-4.88,7.46,21.82,21.82,0,0,1-7.42,5.1,23.42,23.42,0,0,1-9,1.73,21.57,21.57,0,0,1-16.35-7A23.7,23.7,0,0,1,238.2,59,23.2,23.2,0,0,1,236.57,50.34Zm10.48-.08q0,6.08,3.33,9.63a11.84,11.84,0,0,0,9.05,3.55,11.65,11.65,0,0,0,9-3.63q3.36-3.63,3.35-9.79A12.34,12.34,0,0,0,268.26,41a12.8,12.8,0,0,0-17.76,0A12.81,12.81,0,0,0,247.05,50.26Z"/></g></svg>