<svg xmlns="http://www.w3.org/2000/svg" viewBox="0 0 369.62 88.7"><defs><style>.cls-1{fill:#005b9f;}</style></defs><g id="Layer_3" data-name="Layer 3"><path class="cls-1" d="M53.48,22.66l-.66,9.81q-3.41-.28-6.68-.43C44,32,41.81,31.9,39.67,31.9H37.83L36.38,51.29c-.08,1.29-.14,2.6-.17,3.91s-.06,2.67-.06,4c0,1.59,0,2.79,0,3.61s0,1.57.06,2.28H19.09q.78-5.23,1.41-13.69T21.55,31.9c-3.28,0-6.23.11-8.82.2s-4.83.23-6.71.4l.66-9.84Z"/><path class="cls-1" d="M82.75,64.69c-2.56.44-5,.77-7.4,1s-4.64.34-6.8.34Q58.14,66,52.62,62T47.1,50.25q0-8.76,6.11-13.71t16.94-4.95q9.31,0,13.87,3.26t4.56,9.89a24.91,24.91,0,0,1-.18,2.8c-.12,1.06-.29,2.21-.53,3.47L63.5,51a1.72,1.72,0,0,0-.06.34c0,.13,0,.33,0,.6a4.28,4.28,0,0,0,2.43,4q2.41,1.3,7.59,1.3,2.66,0,5.4-.27a54.35,54.35,0,0,0,5.59-.83Zm-19.17-20H74.1V44.4a6,6,0,0,0-1.17-4A4.24,4.24,0,0,0,69.52,39a5.51,5.51,0,0,0-4,1.49,7.07,7.07,0,0,0-2,4.18"/><path class="cls-1" d="M112.72,22.66q-1.34,12.94-2,23.32T110,63.85v1.28H93.9q1.29-14.59,2-24.76t.82-17.71Z"/><path class="cls-1" d="M115.85,54.92q4.62,1.09,7.45,1.55a32.1,32.1,0,0,0,4.88.46,7.71,7.71,0,0,0,3.16-.51,1.57,1.57,0,0,0,1.1-1.44q0-1-4.54-3.41l-.9-.47q-6.37-3.39-8.18-5.43a7,7,0,0,1-1.8-4.78A7.46,7.46,0,0,1,121.31,34q4.27-2.36,12.46-2.35c2.5,0,4.84.1,7,.3a50,50,0,0,1,6.07.92l1,8.83q-2.94-.64-5.38-1a38.73,38.73,0,0,0-4.72-.3,6.21,6.21,0,0,0-2.72.49,1.46,1.46,0,0,0-1,1.3q0,1.18,3.6,3c.58.29,1,.52,1.3.69q5.43,2.79,7.45,5a7.42,7.42,0,0,1,2,5.09A8.13,8.13,0,0,1,144,63.5Q139.57,66,131,66a68.87,68.87,0,0,1-7.2-.38,66.15,66.15,0,0,1-6.92-1.09Z"/><path class="cls-1" d="M171.49,65.32c-1.15.19-2.25.33-3.31.44s-2.05.15-3,.15q-6.23,0-9.72-2.42a7.64,7.64,0,0,1-3.5-6.63,8.31,8.31,0,0,1,3.38-7q3.39-2.58,11.21-4c.49-.1,1.2-.23,2.11-.37q8.93-1.55,8.92-3.61a1.64,1.64,0,0,0-1.09-1.58,9.89,9.89,0,0,0-3.64-.48,43,43,0,0,0-7.36.67,52.07,52.07,0,0,0-7.7,2l1.76-9.3A62.28,62.28,0,0,1,167.11,32a79.65,79.65,0,0,1,8.33-.42q8.76,0,12.95,2a6.7,6.7,0,0,1,4.19,6.34c0,.46,0,1,0,1.57s-.07,1.2-.12,1.84l-.94,16.38a10,10,0,0,0-.07,1.41v4h-15.5c.21-2.25.37-4,.49-5.28s.2-2.15.25-2.67l.32-5.7-1.74.45c-.64.16-1.48.35-2.53.58l-3.28.62a7.86,7.86,0,0,0-3.19,1.26,2.45,2.45,0,0,0-1.12,2,2.11,2.11,0,0,0,1,1.82,4.81,4.81,0,0,0,2.74.69,20,20,0,0,0,2.07-.14c.84-.1,1.83-.24,3-.42Z"/><path class="cls-1" d="M228.69,41.7l-.88,0-1.34,0a14.57,14.57,0,0,0-6.42,1.24,7.35,7.35,0,0,0-3.6,3.71,18.1,18.1,0,0,0-1.12,5q-.37,3.36-.64,13.5H198.92q.95-7.29,1.43-14.66t.49-14.72V32.5h13.85L214.37,37a13.09,13.09,0,0,1,4.84-4.15,15,15,0,0,1,6.55-1.3c.5,0,1.24,0,2.23.09l.24,0Z"/><path class="cls-1" d="M252,49.6s0,.23,0,.58,0,.67,0,1c0,2.11.35,3.56,1.07,4.34a4.94,4.94,0,0,0,3.74,1.17,22.3,22.3,0,0,0,2.43-.25l1.17-.12-.94,9.08a39.36,39.36,0,0,1-4.07.5c-1.41.11-2.88.16-4.42.16q-7.24,0-10.76-2.55c-2.35-1.71-3.52-4.3-3.52-7.79V54.61l.9-13.72h-5.87l.47-8.39h6.49l.36-5.26,14.39-2.57-.54,7.83h9.11l-.54,8.39h-8.81Z"/><path class="cls-1" d="M283.12,65.32c-1.15.19-2.25.33-3.3.44s-2.06.15-3,.15q-6.22,0-9.72-2.42a7.64,7.64,0,0,1-3.5-6.63,8.34,8.34,0,0,1,3.38-7q3.39-2.58,11.21-4c.5-.1,1.2-.23,2.12-.37q8.91-1.55,8.92-3.61a1.65,1.65,0,0,0-1.1-1.58,9.85,9.85,0,0,0-3.64-.48,42.81,42.81,0,0,0-7.35.67,51.88,51.88,0,0,0-7.71,2l1.76-9.3A62.28,62.28,0,0,1,278.74,32a79.65,79.65,0,0,1,8.33-.42q8.78,0,12.95,2a6.68,6.68,0,0,1,4.19,6.34c0,.46,0,1,0,1.57s-.06,1.2-.11,1.84l-.94,16.38a8.45,8.45,0,0,0-.08,1.41v4h-15.5c.21-2.25.38-4,.49-5.28s.2-2.15.26-2.67l.31-5.7-1.74.45c-.64.16-1.48.35-2.53.58l-3.28.62a7.86,7.86,0,0,0-3.19,1.26,2.47,2.47,0,0,0-1.12,2,2.11,2.11,0,0,0,1,1.82,4.81,4.81,0,0,0,2.74.69,20,20,0,0,0,2.07-.14c.84-.1,1.83-.24,3-.42Z"/><path class="cls-1" d="M310.55,65.13q1-7.6,1.49-15.75t.5-16.88h15v4a15.94,15.94,0,0,1,5.91-3.84,23.29,23.29,0,0,1,7.86-1.17q8,0,11.66,2.5c2.43,1.67,3.64,4.37,3.64,8.08q0,2-.51,9.66t-.66,13.36H340q.51-5,.78-9.29t.28-6.68q0-4.63-1.25-6.36t-4.35-1.72a7.07,7.07,0,0,0-7,4.48q-2,4.47-2.13,19.57Z"/><polygon points="353.5 25.84 357.67 25.84 357.67 26.62 356.03 26.62 356.03 31.01 355.13 31.01 355.13 26.62 353.5 26.62 353.5 25.84"/><polygon points="358.25 25.84 359.52 25.84 360.94 29.89 360.96 29.89 362.34 25.84 363.6 25.84 363.6 31.01 362.74 31.01 362.74 27.02 362.73 27.02 361.3 31.01 360.55 31.01 359.13 27.02 359.11 27.02 359.11 31.01 358.25 31.01 358.25 25.84"/></g></svg>